<svg width="26" height="26" viewBox="0 0 26 26" fill="none" xmlns="http://www.w3.org/2000/svg">
<path d="M2.88889 26C2.09444 26 1.41411 25.7174 0.847889 25.1521C0.282629 24.5859 0 23.9056 0 23.1111V2.88889C0 2.09444 0.282629 1.41411 0.847889 0.847889C1.41411 0.282629 2.09444 0 2.88889 0H8.66667C9.46111 0 10.1414 0.282629 10.7077 0.847889C11.2729 1.41411 11.5556 2.09444 11.5556 2.88889V23.1111C11.5556 23.9056 11.2729 24.5859 10.7077 25.1521C10.1414 25.7174 9.46111 26 8.66667 26H2.88889ZM17.3333 10.1111C16.5389 10.1111 15.859 9.828 15.2938 9.26178C14.7276 8.69652 14.4444 8.01667 14.4444 7.22222V2.88889C14.4444 2.09444 14.7276 1.41411 15.2938 0.847889C15.859 0.282629 16.5389 0 17.3333 0H23.1111C23.9056 0 24.5859 0.282629 25.1521 0.847889C25.7174 1.41411 26 2.09444 26 2.88889V7.22222C26 8.01667 25.7174 8.69652 25.1521 9.26178C24.5859 9.828 23.9056 10.1111 23.1111 10.1111H17.3333ZM17.3333 26C16.5389 26 15.859 25.7174 15.2938 25.1521C14.7276 24.5859 14.4444 23.9056 14.4444 23.1111V15.8889C14.4444 15.0944 14.7276 14.4141 15.2938 13.8479C15.859 13.2826 16.5389 13 17.3333 13H23.1111C23.9056 13 24.5859 13.2826 25.1521 13.8479C25.7174 14.4141 26 15.0944 26 15.8889V23.1111C26 23.9056 25.7174 24.5859 25.1521 25.1521C24.5859 25.7174 23.9056 26 23.1111 26H17.3333Z" fill="#222222"/>
</svg>
