<svg width="26" height="21" viewBox="0 0 26 21" fill="none" xmlns="http://www.w3.org/2000/svg">
<path d="M18.2 18.2V21H0V18.2C0 18.2 0 12.6 9.1 12.6C18.2 12.6 18.2 18.2 18.2 18.2ZM13.65 4.90006C13.65 3.93093 13.3831 2.98357 12.8832 2.17777C12.3832 1.37197 11.6726 0.743931 10.8412 0.373063C10.0098 0.00219472 9.09495 -0.0948413 8.21234 0.0942256C7.32972 0.283293 6.51899 0.749971 5.88266 1.43525C5.24634 2.12052 4.81299 2.99361 4.63743 3.94412C4.46186 4.89462 4.55197 5.87984 4.89635 6.7752C5.24073 7.67055 5.82391 8.43583 6.57216 8.97424C7.3204 9.51266 8.20009 9.80004 9.1 9.80004C10.3067 9.80004 11.464 9.28379 12.3173 8.36487C13.1706 7.44594 13.65 6.19961 13.65 4.90006ZM18.122 12.6C18.9212 13.2661 19.5751 14.1126 20.0378 15.0801C20.5005 16.0476 20.7606 17.1126 20.8 18.2V21H26V18.2C26 18.2 26 13.118 18.122 12.6ZM16.9 7.36103e-05C16.0052 -0.00529217 15.1301 0.282811 14.391 0.826071C15.1807 2.0143 15.6053 3.43886 15.6053 4.90006C15.6053 6.36125 15.1807 7.78581 14.391 8.97404C15.1301 9.5173 16.0052 9.8054 16.9 9.80004C18.1067 9.80004 19.264 9.28379 20.1173 8.36487C20.9706 7.44594 21.45 6.19961 21.45 4.90006C21.45 3.6005 20.9706 2.35417 20.1173 1.43525C19.264 0.516321 18.1067 7.36103e-05 16.9 7.36103e-05Z" fill="#222222"/>
</svg>
