<svg width="26" height="20" viewBox="0 0 26 20" fill="none" xmlns="http://www.w3.org/2000/svg">
<path d="M7.15942 1.25H26V6.25H24.8225V7.5H17.7572C17.4449 7.5 17.1454 7.6317 16.9246 7.86612C16.7038 8.10054 16.5797 8.41848 16.5797 8.75V10C16.5797 10.663 16.3316 11.2989 15.8899 11.7678C15.4483 12.2366 14.8492 12.5 14.2246 12.5H10.2446C9.7971 12.5 9.38496 12.775 9.18478 13.2L6.29982 19.3125C6.09964 19.7375 5.69928 20 5.25181 20H1.27174C1.27174 20 -2.26087 20 2.44928 12.5C2.44928 12.5 5.98188 7.5 1.27174 7.5V1.25H2.44928L3.03804 0H6.57065L7.15942 1.25ZM15.4022 10V8.75C15.4022 8.41848 15.2781 8.10054 15.0573 7.86612C14.8365 7.6317 14.5369 7.5 14.2246 7.5H13.0471C13.0471 7.5 11.8696 8.75 13.0471 10C12.4225 10 11.8235 9.73661 11.3818 9.26777C10.9402 8.79893 10.692 8.16304 10.692 7.5C10.3797 7.5 10.0802 7.6317 9.85939 7.86612C9.63855 8.10054 9.51449 8.41848 9.51449 8.75V10C9.51449 10.3315 9.63855 10.6495 9.85939 10.8839C10.0802 11.1183 10.3797 11.25 10.692 11.25H14.2246C14.5369 11.25 14.8365 11.1183 15.0573 10.8839C15.2781 10.6495 15.4022 10.3315 15.4022 10Z" fill="#222222"/>
</svg>
