<svg width="149" height="38" viewBox="0 0 149 38" fill="none" xmlns="http://www.w3.org/2000/svg">
<path d="M3.59375 7.25H6.51562L13.9688 25.7969L21.4062 7.25H24.3438L15.0938 30H12.8125L3.59375 7.25ZM2.64062 7.25H5.21875L5.64062 21.125V30H2.64062V7.25ZM22.7031 7.25H25.2812V30H22.2812V21.125L22.7031 7.25ZM34.8906 28.25L39.5938 13.0938H42.6875L35.9062 32.6094C35.75 33.026 35.5417 33.474 35.2812 33.9531C35.0312 34.4427 34.7083 34.9062 34.3125 35.3438C33.9167 35.7812 33.4375 36.1354 32.875 36.4062C32.3229 36.6875 31.6615 36.8281 30.8906 36.8281C30.6615 36.8281 30.3698 36.7969 30.0156 36.7344C29.6615 36.6719 29.4115 36.6198 29.2656 36.5781L29.25 34.2344C29.3333 34.2448 29.4635 34.2552 29.6406 34.2656C29.8281 34.2865 29.9583 34.2969 30.0312 34.2969C30.6875 34.2969 31.2448 34.2083 31.7031 34.0312C32.1615 33.8646 32.5469 33.5781 32.8594 33.1719C33.1823 32.776 33.4583 32.2292 33.6875 31.5312L34.8906 28.25ZM31.4375 13.0938L35.8281 26.2188L36.5781 29.2656L34.5 30.3281L28.2812 13.0938H31.4375Z" fill="black"/>
<path d="M50.6094 26.3906L55.1406 7.25H57.6719L58.25 10.4375L53.4219 30H50.7031L50.6094 26.3906ZM48.2812 7.25L52.0312 26.3906L51.7188 30H48.6875L43.6406 7.25H48.2812ZM62.2344 26.3125L65.9375 7.25H70.5781L65.5469 30H62.5156L62.2344 26.3125ZM59.0938 7.25L63.6562 26.4688L63.5312 30H60.8125L55.9531 10.4219L56.5781 7.25H59.0938ZM81.4375 26.1875V18.6562C81.4375 18.1146 81.349 17.651 81.1719 17.2656C80.9948 16.8698 80.7188 16.5625 80.3438 16.3438C79.9792 16.125 79.5052 16.0156 78.9219 16.0156C78.4219 16.0156 77.9896 16.1042 77.625 16.2812C77.2604 16.4479 76.9792 16.6927 76.7812 17.0156C76.5833 17.3281 76.4844 17.6979 76.4844 18.125H71.9844C71.9844 17.4062 72.151 16.724 72.4844 16.0781C72.8177 15.4323 73.3021 14.8646 73.9375 14.375C74.5729 13.875 75.3281 13.4844 76.2031 13.2031C77.0885 12.9219 78.0781 12.7812 79.1719 12.7812C80.4844 12.7812 81.651 13 82.6719 13.4375C83.6927 13.875 84.4948 14.5312 85.0781 15.4062C85.6719 16.2812 85.9688 17.375 85.9688 18.6875V25.9219C85.9688 26.849 86.026 27.6094 86.1406 28.2031C86.2552 28.7865 86.4219 29.2969 86.6406 29.7344V30H82.0938C81.875 29.5417 81.7083 28.9688 81.5938 28.2812C81.4896 27.5833 81.4375 26.8854 81.4375 26.1875ZM82.0312 19.7031L82.0625 22.25H79.5469C78.9531 22.25 78.4375 22.3177 78 22.4531C77.5625 22.5885 77.2031 22.7812 76.9219 23.0312C76.6406 23.2708 76.4323 23.5521 76.2969 23.875C76.1719 24.1979 76.1094 24.5521 76.1094 24.9375C76.1094 25.3229 76.1979 25.6719 76.375 25.9844C76.5521 26.2865 76.8073 26.526 77.1406 26.7031C77.474 26.8698 77.8646 26.9531 78.3125 26.9531C78.9896 26.9531 79.5781 26.8177 80.0781 26.5469C80.5781 26.276 80.9635 25.9427 81.2344 25.5469C81.5156 25.151 81.6615 24.776 81.6719 24.4219L82.8594 26.3281C82.6927 26.7552 82.4635 27.1979 82.1719 27.6562C81.8906 28.1146 81.5312 28.5469 81.0938 28.9531C80.6562 29.349 80.1302 29.6771 79.5156 29.9375C78.901 30.1875 78.1719 30.3125 77.3281 30.3125C76.2552 30.3125 75.2812 30.099 74.4062 29.6719C73.5417 29.2344 72.8542 28.6354 72.3438 27.875C71.8438 27.1042 71.5938 26.2292 71.5938 25.25C71.5938 24.3646 71.7604 23.5781 72.0938 22.8906C72.4271 22.2031 72.9167 21.625 73.5625 21.1562C74.2188 20.6771 75.0365 20.3177 76.0156 20.0781C76.9948 19.8281 78.1302 19.7031 79.4219 19.7031H82.0312ZM93.9375 16.7812V30H89.4375V13.0938H93.6719L93.9375 16.7812ZM99.0312 12.9844L98.9531 17.1562C98.7344 17.125 98.4688 17.099 98.1562 17.0781C97.8542 17.0469 97.5781 17.0312 97.3281 17.0312C96.6927 17.0312 96.1406 17.1146 95.6719 17.2812C95.2135 17.4375 94.8281 17.6719 94.5156 17.9844C94.2135 18.2969 93.9844 18.6771 93.8281 19.125C93.6823 19.5729 93.599 20.0833 93.5781 20.6562L92.6719 20.375C92.6719 19.2812 92.7812 18.276 93 17.3594C93.2188 16.4323 93.5365 15.625 93.9531 14.9375C94.3802 14.25 94.901 13.7188 95.5156 13.3438C96.1302 12.9688 96.8333 12.7812 97.625 12.7812C97.875 12.7812 98.1302 12.8021 98.3906 12.8438C98.651 12.875 98.8646 12.9219 99.0312 12.9844Z" fill="#3AB137"/>
<path d="M122.872 5.16934C119.283 5.93638 116.325 8.97715 115.777 12.511C115.667 13.1685 115.421 13.7712 115.202 13.8533C115.01 13.9355 114.489 14.5656 114.078 15.2778C113.12 16.8941 113.092 19.1404 113.996 20.5923L114.599 21.5785L113.476 22.6195C111.147 24.8111 111.64 28.2353 114.489 29.4407C115.202 29.742 117.749 29.8242 126.954 29.8242C139.884 29.8242 139.802 29.8242 141.062 27.934C141.637 27.1122 141.692 26.6739 141.692 23.8797C141.692 20.4828 141.445 19.6335 140.158 18.6199C139.747 18.2912 138.952 17.9077 138.35 17.7433C137.309 17.4694 137.281 17.442 137.473 16.5928C137.583 16.0997 137.665 15.5518 137.665 15.36C137.665 15.1683 137.994 14.9491 138.377 14.8669C138.761 14.7847 139.528 14.6204 140.048 14.4834C142.103 13.9629 143.637 13.8533 144.294 14.2095C145.034 14.593 148.431 14.3464 148.705 13.8807C148.814 13.7438 148.732 12.7028 148.54 11.5796C148.157 9.27849 148.157 9.27849 145.554 9.85377C144.678 10.0455 143.966 10.3743 143.664 10.7852C143.253 11.3057 142.705 11.4974 140.843 11.7714C137.391 12.2645 137.501 12.2919 136.46 10.9221C135.172 9.2237 133.309 8.31968 131.145 8.34708C129.227 8.34708 128.049 8.89497 127.145 10.1277C125.968 11.7988 126.57 14.4834 128.351 15.6066C129.09 16.0723 129.529 16.1271 131.008 16.0175C131.994 15.9353 133.254 15.7983 133.83 15.6888C135.145 15.4422 135.199 16.0175 133.967 17.3598C133.117 18.2638 132.843 18.3734 128.953 19.113C122.982 20.291 119.749 20.8389 118.735 20.8389C115.859 20.8389 114.763 17.0585 117.174 15.497C117.996 14.9765 118.133 14.73 118.133 13.7985C118.133 12.4562 119.174 10.2099 120.215 9.2237C121.858 7.68962 124.653 7.19652 126.817 8.04574C127.748 8.40187 127.995 8.40187 129.337 7.93616L130.816 7.47046L129.885 6.73081C127.94 5.27892 125.255 4.67624 122.872 5.16934ZM138.733 20.7019C139.144 21.058 139.226 21.5785 139.226 23.8249C139.226 26.2904 139.172 26.5369 138.624 26.9204C138.103 27.3039 136.487 27.3587 126.789 27.3587C114.462 27.3587 114.571 27.3861 114.571 25.6877C114.571 24.5097 115.174 24.1536 117.914 23.6605C119.311 23.414 124.105 22.5647 128.543 21.7429C132.98 20.9485 136.98 20.291 137.418 20.2636C137.857 20.2362 138.459 20.428 138.733 20.7019Z" fill="#3AB137"/>
<path d="M134.241 21.4963C133.309 21.9894 132.926 22.6743 132.926 23.7975C132.926 26.7561 136.432 27.8792 138.076 25.4411C139.774 22.9209 136.953 20.0171 134.241 21.4963Z" fill="#3AB137"/>
<path d="M124.516 23.0304C122.653 23.9344 123.447 26.8109 125.557 26.8109C126.324 26.8109 127.447 25.6055 127.447 24.8111C127.447 23.414 125.776 22.4004 124.516 23.0304Z" fill="#3AB137"/>
</svg>
