<svg width="26" height="23" viewBox="0 0 26 23" fill="none" xmlns="http://www.w3.org/2000/svg">
<path d="M18.2 4.05882H20.8V23H5.2V4.05882H7.8V2.70588C7.8 1.98824 8.07393 1.29999 8.56152 0.792534C9.04912 0.285083 9.71044 0 10.4 0H15.6C16.2896 0 16.9509 0.285083 17.4385 0.792534C17.9261 1.29999 18.2 1.98824 18.2 2.70588V4.05882ZM22.1 4.05882H23.4C24.0896 4.05882 24.7509 4.34391 25.2385 4.85136C25.7261 5.35881 26 6.04706 26 6.76471V20.2941C26 21.0118 25.7261 21.7 25.2385 22.2075C24.7509 22.7149 24.0896 23 23.4 23H22.1V4.05882ZM3.9 4.05882V23H2.6C1.91044 23 1.24912 22.7149 0.761522 22.2075C0.273928 21.7 0 21.0118 0 20.2941V6.76471C0 5.27647 1.17 4.05882 2.6 4.05882H3.9ZM10.4 2.70588V4.05882H15.6V2.70588H10.4Z" fill="#222222"/>
</svg>
