<svg width="26" height="24" viewBox="0 0 26 24" fill="none" xmlns="http://www.w3.org/2000/svg">
<path d="M1.25091 24C0.765327 24 0.406415 23.7778 0.174178 23.3333C-0.0580593 22.8889 -0.0580593 22.4444 0.174178 22L11.8916 0.666667C12.1238 0.222222 12.4933 0 13 0C13.5067 0 13.8762 0.222222 14.1084 0.666667L25.8258 22C26.0581 22.4444 26.0581 22.8889 25.8258 23.3333C25.5936 23.7778 25.2347 24 24.7491 24H1.25091ZM13 9.33333C12.6411 9.33333 12.3404 9.46089 12.0981 9.716C11.8549 9.972 11.7333 10.2889 11.7333 10.6667V14.6667C11.7333 15.0444 11.8549 15.3609 12.0981 15.616C12.3404 15.872 12.6411 16 13 16C13.3589 16 13.66 15.872 13.9032 15.616C14.1456 15.3609 14.2667 15.0444 14.2667 14.6667V10.6667C14.2667 10.2889 14.1456 9.972 13.9032 9.716C13.66 9.46089 13.3589 9.33333 13 9.33333ZM13 20C13.3589 20 13.66 19.872 13.9032 19.616C14.1456 19.3609 14.2667 19.0444 14.2667 18.6667C14.2667 18.2889 14.1456 17.9724 13.9032 17.7173C13.66 17.4613 13.3589 17.3333 13 17.3333C12.6411 17.3333 12.3404 17.4613 12.0981 17.7173C11.8549 17.9724 11.7333 18.2889 11.7333 18.6667C11.7333 19.0444 11.8549 19.3609 12.0981 19.616C12.3404 19.872 12.6411 20 13 20Z" fill="#222222"/>
</svg>
