<svg width="26" height="26" viewBox="0 0 26 26" fill="none" xmlns="http://www.w3.org/2000/svg">
<path d="M20.67 20.007C20.332 18.967 19.357 18.2 18.2 18.2H16.9V14.3C16.9 13.9552 16.763 13.6246 16.5192 13.3808C16.2754 13.137 15.9448 13 15.6 13H7.8V10.4H10.4C10.7448 10.4 11.0754 10.263 11.3192 10.0192C11.563 9.77544 11.7 9.44478 11.7 9.1V6.5H14.3C14.9896 6.5 15.6509 6.22607 16.1385 5.73848C16.6261 5.25088 16.9 4.58956 16.9 3.9V3.367C18.4554 3.99407 19.8357 4.98872 20.9228 6.26578C22.0098 7.54285 22.7712 9.06431 23.1417 10.6999C23.5123 12.3355 23.481 14.0366 23.0506 15.6575C22.6201 17.2783 21.8033 18.7708 20.67 20.007ZM11.7 23.309C6.565 22.672 2.6 18.304 2.6 13C2.6 12.194 2.704 11.414 2.873 10.673L9.1 16.9V18.2C9.1 18.8896 9.37393 19.5509 9.86152 20.0385C10.3491 20.5261 11.0104 20.8 11.7 20.8M13 0C11.2928 0 9.60235 0.336255 8.02512 0.989566C6.44788 1.64288 5.01477 2.60045 3.80761 3.80761C1.36964 6.24558 0 9.55219 0 13C0 16.4478 1.36964 19.7544 3.80761 22.1924C5.01477 23.3995 6.44788 24.3571 8.02512 25.0104C9.60235 25.6637 11.2928 26 13 26C16.4478 26 19.7544 24.6304 22.1924 22.1924C24.6304 19.7544 26 16.4478 26 13C26 11.2928 25.6637 9.60235 25.0104 8.02512C24.3571 6.44788 23.3995 5.01477 22.1924 3.80761C20.9852 2.60045 19.5521 1.64288 17.9749 0.989566C16.3977 0.336255 14.7072 0 13 0Z" fill="#222222"/>
</svg>
